<?xml version="1.0" encoding="utf-8"?>
<!DOCTYPE svg PUBLIC "-//W3C//DTD SVG 20010904//EN" "http://www.w3.org/TR/2001/REC-SVG-20010904/DTD/svg10.dtd">
<svg version="1.0" xmlns="http://www.w3.org/2000/svg" width="821pt" height="897pt" viewBox="0 0 821 897" style="" preserveAspectRatio="xMidYMid meet">
<g fill="#AE2415FF" stroke="#AE2415FF">
<path d="M 729.813 89.776 L 726.125 91.500 732.563 98.347 C 736.103 102.113 739.000 105.564 739.000 106.016 C 739.000 107.784 725.540 135.728 720.294 144.851 C 704.294 172.677 667.395 221.904 635.481 258.000 C 609.101 287.837 558.319 336.966 513.183 376.316 C 502.973 385.217 488.301 398.100 480.579 404.943 C 413.941 463.999 346.406 512.009 269.500 554.997 C 237.308 572.992 166.656 607.287 149.101 613.440 C 145.803 614.596 145.587 614.507 141.851 610.454 C 139.733 608.156 138.000 605.970 138.000 605.595 C 138.000 605.220 136.859 603.695 135.464 602.206 C 134.069 600.718 131.550 597.367 129.865 594.759 L 126.803 590.018 119.516 596.759 C 95.232 619.222 88.453 625.302 80.907 631.381 C 71.783 638.732 57.312 648.580 47.000 654.457 L 40.500 658.161 49.500 657.555 C 54.450 657.223 69.300 656.067 82.500 654.988 C 104.919 653.156 146.712 650.523 193.500 647.997 C 252.775 644.797 303.616 635.966 343.833 621.884 C 399.062 602.547 435.325 580.517 467.740 546.610 C 480.646 533.110 488.002 522.986 494.955 509.153 C 498.402 502.295 498.485 505.032 495.137 515.187 C 486.008 542.884 482.562 564.331 482.554 593.500 C 482.546 625.227 487.678 664.234 497.948 710.500 C 508.958 760.104 512.606 794.558 510.126 825.542 C 509.089 838.504 506.214 860.262 502.442 883.703 C 501.598 888.949 501.100 893.433 501.336 893.669 C 501.928 894.261 514.887 879.360 524.647 866.864 C 538.531 849.089 582.856 788.282 591.628 774.977 C 615.429 738.877 637.890 693.359 647.378 662.000 C 651.054 649.852 655.597 630.215 657.559 618.000 C 658.702 610.886 659.402 598.852 659.730 580.683 C 660.397 543.771 658.770 528.661 651.582 504.983 C 649.755 498.966 648.615 494.262 649.049 494.530 C 649.483 494.798 651.517 498.051 653.569 501.759 C 659.909 513.213 671.782 530.672 679.435 539.793 C 694.607 557.876 706.483 567.773 741.068 591.157 C 788.598 623.293 808.778 638.227 814.780 645.706 L 817.825 649.500 811.407 624.000 C 802.572 588.899 796.134 557.611 787.536 508.000 C 780.010 464.569 777.618 454.024 770.641 433.500 C 760.894 404.830 748.386 384.164 725.062 358.193 C 713.495 345.313 696.798 332.199 680.250 322.995 C 677.913 321.695 676.000 320.100 676.000 319.450 C 676.000 317.804 684.355 311.463 690.455 308.478 C 700.718 303.457 722.072 300.865 736.405 302.900 C 740.753 303.518 744.488 303.846 744.704 303.629 C 745.339 302.994 733.955 292.492 726.950 287.252 C 712.370 276.344 702.991 271.700 687.223 267.581 C 671.640 263.511 663.372 262.829 651.141 264.608 C 645.443 265.437 640.627 265.961 640.439 265.773 C 640.251 265.584 645.072 260.946 651.152 255.465 C 672.352 236.354 690.963 215.647 705.290 195.228 C 716.268 179.583 728.044 160.901 735.461 147.364 C 741.487 136.366 756.000 105.126 756.000 103.153 C 756.000 101.411 745.675 92.021 741.580 90.039 C 736.490 87.574 734.612 87.533 729.813 89.776 "/></g>
<g fill="#F5532CFF" stroke="#F5532CFF">
<path d="M 312.046 6.816 C 313.396 8.473 317.712 13.580 321.639 18.165 C 337.824 37.063 349.502 55.124 355.803 71.000 C 357.440 75.125 361.130 85.475 364.002 94.000 C 381.395 145.629 403.003 183.919 431.216 213.103 L 440.500 222.707 430.500 216.768 C 398.475 197.750 368.623 187.807 324.607 181.500 C 293.102 176.986 242.963 177.014 208.500 181.566 C 202.450 182.365 189.175 183.933 179.000 185.051 C 168.825 186.168 149.250 188.396 135.500 190.003 C 121.750 191.609 106.675 193.227 102.000 193.598 C 92.872 194.321 90.000 195.250 90.000 197.480 C 90.000 198.256 88.425 202.028 86.500 205.864 C 84.575 209.700 83.000 213.353 83.000 213.983 C 83.000 214.613 81.856 217.630 80.457 220.688 C 79.058 223.746 78.046 226.368 78.207 226.516 C 78.368 226.664 87.725 231.486 99.000 237.231 C 135.734 255.949 159.017 271.140 187.500 294.973 C 221.348 323.296 255.169 343.053 291.500 355.727 C 330.072 369.184 357.060 374.822 391.356 376.588 C 407.196 377.404 407.343 378.474 391.835 380.064 C 363.415 382.978 334.871 391.395 307.500 404.932 C 274.576 421.216 256.376 434.393 229.496 461.409 C 212.452 478.539 207.103 485.157 187.799 513.000 C 170.001 538.669 149.592 564.677 135.102 580.154 C 130.646 584.913 127.002 589.188 127.004 589.654 C 127.010 590.835 132.042 598.296 135.293 601.945 C 136.782 603.616 138.000 605.274 138.000 605.630 C 138.000 605.985 139.733 608.156 141.851 610.454 C 145.587 614.507 145.803 614.596 149.101 613.440 C 166.656 607.287 237.308 572.992 269.500 554.997 C 346.406 512.009 413.941 463.999 480.579 404.943 C 488.301 398.100 502.973 385.217 513.183 376.316 C 558.319 336.966 609.101 287.837 635.481 258.000 C 667.395 221.904 704.294 172.677 720.294 144.851 C 725.540 135.728 739.000 107.784 739.000 106.016 C 739.000 105.564 736.118 102.113 732.595 98.347 L 726.190 91.500 723.524 93.991 C 720.750 96.583 717.308 103.241 706.978 126.000 C 694.083 154.409 677.565 184.827 664.792 203.687 C 655.221 217.818 628.063 248.397 626.485 246.819 C 626.182 246.516 627.040 240.695 628.391 233.884 C 633.333 208.968 632.776 189.768 626.618 172.756 C 620.578 156.072 613.930 144.485 605.240 135.500 C 599.282 129.339 589.096 120.570 588.542 121.125 C 588.317 121.350 588.769 126.026 589.547 131.517 C 593.252 157.669 588.723 181.090 576.944 196.690 C 574.739 199.611 572.519 202.000 572.010 202.000 C 571.501 202.000 570.165 198.912 569.041 195.137 C 560.985 168.086 548.160 142.222 533.524 123.506 C 520.920 107.389 496.093 85.545 476.371 73.219 C 457.213 61.245 412.211 41.693 381.500 32.000 C 367.623 27.620 342.297 17.739 313.546 5.487 L 309.591 3.802 312.046 6.816 "/></g>
<g fill="#AE2415FF" stroke="#AE2415FF">
<path d="M 83.500 195.522 C 82.950 195.722 71.925 197.040 59.000 198.450 C 23.799 202.290 7.526 204.163 7.274 204.403 C 7.150 204.521 11.425 205.633 16.774 206.872 C 33.918 210.846 68.573 222.054 76.101 226.059 C 77.389 226.744 78.221 225.748 80.351 220.974 C 81.808 217.708 83.000 214.553 83.000 213.962 C 83.000 213.371 84.399 210.101 86.110 206.694 C 87.820 203.287 89.589 199.263 90.040 197.750 C 90.817 195.146 90.692 195.004 87.680 195.079 C 85.931 195.122 84.050 195.322 83.500 195.522 "/></g>
</svg>
